<svg width="20" height="28" viewBox="0 0 20 28" fill="none" xmlns="http://www.w3.org/2000/svg">
<path fill-rule="evenodd" clip-rule="evenodd" d="M10.0144 3.47771C12.0588 3.47771 13.9083 4.30597 15.2481 5.64476C16.5869 6.98356 17.4151 8.834 17.4151 10.8784C17.4151 11.8235 17.2364 12.7289 16.9116 13.563C16.5775 14.4193 16.0904 15.1973 15.4829 15.8632L15.4759 15.8726C15.0623 16.438 14.7317 17.056 14.4852 17.7254C14.2773 18.2885 14.1278 18.8878 14.0378 19.5221H14.2493C14.4537 19.5221 14.6184 19.688 14.6184 19.8913V23.786C14.6184 24.1774 14.4584 24.5325 14.2014 24.7895C13.9444 25.0465 13.5881 25.2066 13.1979 25.2066H12.8731C12.7247 25.8269 12.4631 26.3689 12.1254 26.7743C11.7119 27.2708 11.185 27.5664 10.6056 27.5664H9.42453C8.84509 27.5664 8.31822 27.2708 7.90468 26.7743C7.56706 26.3689 7.30538 25.8269 7.15701 25.2066H6.83226C6.4409 25.2066 6.08576 25.0465 5.82874 24.7895C5.57173 24.5325 5.4117 24.1762 5.4117 23.786V19.8913C5.4117 19.6868 5.57758 19.5221 5.78086 19.5221H5.99231C5.90236 18.8878 5.75283 18.2896 5.54488 17.7265C5.29721 17.0548 4.96544 16.4357 4.55072 15.8691C3.94207 15.202 3.45259 14.4228 3.11847 13.5642C2.79372 12.7301 2.61496 11.8247 2.61496 10.8796C2.61496 8.83638 3.44323 6.98576 4.78202 5.64595C6.12082 4.30598 7.97122 3.47771 10.0144 3.47771ZM9.58453 9.6869C9.72355 9.7383 9.86841 9.76401 10.0133 9.76401C10.1581 9.76401 10.3042 9.7383 10.4432 9.6869L10.0144 8.71027L9.58453 9.6869ZM10.7411 10.3633C10.5063 10.4568 10.2609 10.5035 10.0144 10.5035C9.76795 10.5035 9.52262 10.4568 9.2878 10.3633L8.6032 11.9205L9.87307 11.5117C9.91629 11.4941 9.96419 11.4836 10.0144 11.4836C10.0647 11.4836 10.1114 11.4941 10.1558 11.5117L11.4256 11.9205L10.7411 10.3633ZM7.78547 11.9463L9.67682 7.64479C9.7586 7.45905 9.97705 7.37377 10.1628 7.45554C10.2504 7.4941 10.3158 7.56302 10.3521 7.64479L12.2434 11.9463C12.2691 11.9965 12.2831 12.0526 12.2831 12.1133V19.5221H13.2936C13.3894 18.7954 13.5565 18.112 13.7913 17.4718C14.0623 16.737 14.4257 16.0583 14.8813 15.4368C14.8929 15.4192 14.9058 15.4029 14.9198 15.3877C15.4759 14.7826 15.921 14.0758 16.2247 13.2989C16.5168 12.5512 16.6756 11.7346 16.6756 10.8795C16.6756 9.03958 15.9303 7.37358 14.7247 6.16924C13.5191 4.96365 11.8532 4.21832 10.0132 4.21832C8.17328 4.21832 6.5073 4.96365 5.30297 6.16924C4.09737 7.37484 3.35204 9.04075 3.35204 10.8795C3.35204 11.7347 3.51209 12.5501 3.80297 13.2977C4.10554 14.0723 4.54947 14.779 5.10439 15.383C5.11957 15.3994 5.13359 15.4169 5.14528 15.4356C5.60087 16.0583 5.96421 16.737 6.23522 17.4718C6.4712 18.1108 6.6371 18.7954 6.73289 19.5221H7.74341L7.74457 12.1133C7.74574 12.0526 7.75977 11.9965 7.78547 11.9463ZM11.5447 12.7325L10.3835 12.3586V19.521H11.5436L11.5447 12.7325ZM9.64518 12.3586L8.48513 12.7313V19.521H9.64518V12.3586ZM13.8799 22.7335H6.14851V23.7849C6.14851 23.9718 6.22561 24.1424 6.34944 24.2662C6.47327 24.3901 6.64384 24.4672 6.83076 24.4672H13.1964C13.3833 24.4672 13.5538 24.3901 13.6777 24.2662C13.8015 24.1424 13.8786 23.9718 13.8786 23.7849V22.7335H13.8799ZM13.6218 20.2604H6.14992V21.994H13.8802V20.2604H13.6218ZM17.4863 6.74293L19.2094 6.10975C19.401 6.03966 19.4991 5.82704 19.429 5.63663C19.3589 5.44504 19.1463 5.34691 18.9559 5.417L17.2328 6.05135C17.0412 6.12144 16.9431 6.33406 17.0132 6.52447C17.0833 6.71488 17.2947 6.81302 17.4863 6.74293ZM14.8111 3.73254L15.7386 2.28276C15.8473 2.11103 15.7971 1.88324 15.6265 1.77459C15.4548 1.66594 15.2281 1.71618 15.1183 1.88674L14.1907 3.33652C14.0821 3.50825 14.1323 3.73487 14.3029 3.84469C14.4746 3.9545 14.7024 3.9031 14.8111 3.73254ZM2.797 6.0503L1.07388 5.41595C0.882292 5.34585 0.670829 5.44399 0.600758 5.63557C0.530663 5.82716 0.628795 6.03862 0.820382 6.1087L2.54351 6.74188C2.7351 6.81197 2.94656 6.71384 3.01663 6.52225C3.08555 6.33183 2.98742 6.12037 2.797 6.0503ZM5.8379 3.33652L4.91032 1.88674C4.80051 1.71501 4.57387 1.66478 4.40215 1.77459C4.23042 1.8844 4.18019 2.11104 4.29 2.28276L5.21758 3.73254C5.32623 3.90427 5.55403 3.9545 5.72575 3.84469C5.89631 3.73605 5.94772 3.50824 5.8379 3.33652ZM10.3834 2.44049C10.3834 2.64493 10.2175 2.80965 10.0142 2.80965C9.80979 2.80965 9.64506 2.64377 9.64506 2.44049V0.761744C9.64506 0.557306 9.81095 0.392578 10.0142 0.392578C10.2187 0.392578 10.3834 0.558467 10.3834 0.761744V2.44049ZM12.11 25.2068H7.91713C8.04213 25.6437 8.23255 26.0211 8.46854 26.3038C8.74191 26.6321 9.07367 26.8272 9.42298 26.8272H10.604C10.9534 26.8272 11.2851 26.6321 11.5585 26.3038C11.7956 26.0199 11.9862 25.6438 12.11 25.2068Z" fill="#555555"/>
</svg>
